<?xml version="1.0" encoding="utf-8"?>
<!-- Generator: Adobe Illustrator 16.0.0, SVG Export Plug-In . SVG Version: 6.00 Build 0)  -->
<!DOCTYPE svg PUBLIC "-//W3C//DTD SVG 1.1//EN" "http://www.w3.org/Graphics/SVG/1.1/DTD/svg11.dtd">
<svg version="1.1" id="Warstwa_1" xmlns="http://www.w3.org/2000/svg" xmlns:xlink="http://www.w3.org/1999/xlink" x="0px" y="0px"
	 width="209.76px" height="297.64px" viewBox="0 0 209.76 297.64" enable-background="new 0 0 209.76 297.64" xml:space="preserve">
<path fill-rule="evenodd" clip-rule="evenodd" fill="#C6DFE4" d="M185.176,247.938c3.836-1.288,7.435-0.045,10.966,1.2
	c1.398,0.492,2.648,1.64,2.645,3.336c-0.003,1.824-1.548,2.521-2.952,2.986c-6.629,2.199-13.485,3.524-20.375,4.427
	c-34.354,4.499-68.927,4.754-103.451,3.849c-19.464-0.511-39.116-1.364-58.01-7.267c-1.109-0.347-2.212-0.732-3.279-1.19
	c-1.242-0.532-2.505-1.174-2.542-2.759c-0.037-1.596,1.16-2.372,2.439-2.816c5.33-1.853,10.711-3.48,16.478-2.719
	c1.054,1.009,1.852,2.278,3.599,2.378c13.87,0.786,27.604,2.983,41.45,4.038c0.664,0.051-0.171-0.064,0.5-0.051
	c10.263-1.187,20.44,0.839,30.674,0.752c7.43-0.063,14.863-0.145,22.286,0.241c7.875-0.213,15.757-0.287,23.624-0.739
	c11.602,2.032,22.811-0.186,33.926-3.192C184.25,249.942,184.165,248.485,185.176,247.938z"/>
<path fill-rule="evenodd" clip-rule="evenodd" fill="#3F2A2F" d="M160.965,183.887c-0.561,0.065-1.121,0.13-1.681,0.195
	c-1.704,0.061-3.164,2.025-5.057,0.653c-1.986-2.007-1.657-4.584-1.716-7.058c-0.245-10.471,0.455-20.955-0.393-31.409
	c0.082-5.706-3.731-9.912-5.758-14.807c3.156-4.646-2.772-3.632-3.615-5.777c0.239-1.011-0.322-0.858-1.082-0.967
	c-1.328-0.189-2.761-0.672-1.194-2.445c2.978-1.438,5.892-0.204,8.818,0.177c1.954,0.118,2.091-0.809,1.713-2.489
	c-0.833-3.701-1.671-7.418-2.274-11.15c-0.876-5.408-3.253-8.879-9.148-9.011c-8.119,0.017-16.224,0.057-24.328-0.007
	c-2.452-0.019-5.008,0.254-7.121-1.485c-0.108-3.034,1.913-2.145,3.629-2.037c7.381,0.464,14.759,0.104,19.289,0.199
	c-4.255-0.024-11.361,0.073-18.473-0.063c-0.69-0.203-0.963-0.656-0.822-1.358c0.365-0.504,0.835-0.878,1.402-1.126
	c7.308-1.275,14.67-0.646,22.004-0.622c1.143-0.059,2.785,1.005,3.201-0.891c0.387-1.764-0.997-2.122-2.459-2.055
	c-1.481,0.078-2.951,0.306-4.435,0.122c-2.044-0.311-4.51,0.55-5.715-2.064c1.313-2.367,3.83-2.221,5.968-2.758
	c2.845-0.714,5.838-0.896,8.386-2.556c6.956-4.055,7.126-12.424,0.252-16.738c-5.296-3.324-10.877-3.493-16.576-1.028
	c-2.113,1.044-4.104,3.44-6.577,0.612c-3.136-6.35-5.555-13.065-11.858-17.403c-7.494-5.158-15.434-6.33-24.063-4.042
	C70.9,47.979,64.79,55.126,62.682,65.857c-1.019,5.186-1.69,5.498-6.707,3.934c-5.805-1.808-11.607-2.865-17.465-0.241
	c-4.691,2.011-8.2,4.993-8.826,10.455c-0.881,7.69,3.228,12.794,12.541,14.171c5.854,0.866,11.894,0.967,17.804-0.364
	c4.453-0.679,8.658-2.207,12.88-3.691c1.992-0.701,4.005-1.831,6.135-0.319c0.474,3.529-2.328,4.535-4.645,5.581
	c-5.631,2.541-11.514,4.346-17.691,5.044c-3.443-0.092-6.872,0.233-10.293,0.429c-2.875,0.108-1.489,3.688-3.583,4.423
	c0.153-4.622-2.079-6.493-6.649-7.559c-6.192-1.444-10.49-5.808-11.754-12.295c-1.278-6.565,0.839-12.214,5.904-16.549
	c6.931-5.933,15.059-6.694,23.499-4.455c2.873,0.763,4.002,0.501,4.871-2.489C62.632,48.385,71.728,40.398,85.746,39
	c14.41-1.438,26.349,5.657,32.632,18.998c1.648,3.5,2.646,4.452,6.632,2.837c10.71-4.336,22.054,1.61,24.267,12.04
	c1.163,5.481-0.704,9.841-4.787,13.328c-3.804,3.25-3.085,8.942,1.696,10.456c2.99,0.947,4.232,2.86,5.056,5.547
	c2.249,7.337,3.407,14.894,4.7,22.429c0.355,2.072-0.139,3.745-1.989,4.627c-3.351,1.599-2.728,3.417-1.019,6.001
	c2.918,4.41,3.961,9.467,3.929,14.732c-0.059,9.634-0.139,19.267-0.21,28.9C157.092,181.422,161.163,180.811,160.965,183.887z"/>
<path fill-rule="evenodd" clip-rule="evenodd" fill="#502C2D" d="M160.965,183.887c-1.36-1.73-5.825-0.777-4.313-4.991
	c2.074-0.591,4.126-1.278,6.227-1.749c2.88-0.646,6.848-3.276,6.873-6.572c0.125-16.25-1.296-29.716,0.307-45.162
	c0.257-2.479,0.651-4.945,0.982-7.416c2.689-1.146,4.327-0.104,4.342,2.65c0.028,4.934,0.53,9.891-0.326,14.81
	c0.027,8.982-0.188,20.572-0.188,29.555c0,4.699,7.507,9.864,2.527,13.601c-2.211,1.659-2.528,0.847-2.409,5.402
	c-0.149,14.163-0.683,45.814-0.819,47.474c-0.152,1.834-1.257,2.563-3.019,2.603c-1.926,0.043-2.742-1.071-2.823-2.758
	c-0.113-2.326-0.059-34.626-0.059-48.575C166.032,182.552,163.813,183.438,160.965,183.887z"/>
<path fill-rule="evenodd" clip-rule="evenodd" fill="#E0C8AA" d="M72.088,254.764c-14.025-0.258-27.827-2.925-41.79-3.872
	c-2.503-0.17-3.569-1.431-3.206-3.907c0.282,0.005,0.559,0.043,0.83,0.114c5.973-2.673,13.236-2.566,17.79-8.316
	c1.229-1.551,2.876-2.147,4.861-1.583c3.274,0.93,6.182-0.058,8.946-1.754c0.469-0.166,0.953-0.256,1.447-0.293
	c5.811-0.166,11.466-0.619,16.935-3.209c3.997-1.894,8.621-2.284,12.909-3.564c0.989-0.296,1.981,0.024,2.563,1.042
	c0.535,2.361-1.155,3.675-2.501,5.084c-3.006,3.146-6.692,5.417-10.224,7.906C76.339,245.447,72.249,248.785,72.088,254.764z"/>
<path fill-rule="evenodd" clip-rule="evenodd" fill="#33292C" d="M134.781,94.965c0.005,0.382-0.199,1.625-0.194,2.007
	c-6.955,0-30.934,3.199-33.361,3.492c-19.251,2.329-37.83,6.855-54.826,16.599c-6.697,3.755-7.046,4.415-5.17,11.804
	c1.01,3.978,1.982,7.987,3.663,12.104c2.937-1.662,5.481-3.45,8.094-5.134c8.812-4.668,18.368-7.338,27.773-10.435
	c17.239-4.536,34.802-5.735,52.535-5.086c2.487,0.091,5.049,0.311,6.659,2.707c0.776,0.984,3.373,0.684,4.443,0.874
	c11.106,1.967,6.561,5.013,6.859,5.217c-0.407,0.185-15.357-2.709-18.783-2.901c-26.76-1.489-52.43,2.801-76.561,14.772
	c-3.368,1.67-7.693,3.24-6.929,8.559c0.187,0.795,0.227,1.595,0.124,2.402c-0.268,0.879-0.439,1.951-1.602,1.979
	c-1.256,0.031-0.82-1.502-1.581-1.993c-7.58-7.643-7.462-18.23-10.569-27.588c-0.906-2.731-0.418-5.31,2.078-6.503
	c5.653-2.703,6.447-7.155,5.399-12.561c0.987-1.987-1.573-5.38,2.444-6.166c1.167,1.306,1.299,2.987,1.641,4.585
	c1.137,5.326,1.123,5.31,6.221,3.252c1.07-0.432,2.091-0.961,3.152-1.424c13.131-5.162,26.712-8.276,40.727-9.992
	C105.719,94.469,127.151,94.965,134.781,94.965z"/>
<path fill-rule="evenodd" clip-rule="evenodd" fill="#4F292D" d="M45.923,151.932c0.689-0.438,1.383,3.035,2.069-0.002
	c0.338-0.089,0.816-0.167,0.929,0.041c3.242,5.933,7.967,11.179,7.64,18.681c-0.209,4.781-0.75,9.53-0.945,14.299
	c-0.201,4.918,0.751,5.486,5.361,3.765c1.099-0.41,2.167-0.794,3.367-0.587c7.296,3.875,8.124,9.412,2.087,13.825
	c-7.183-0.948-9.72,3.393-11.325,9.426c-1.422,5.341-3.053,10.486-1.891,16.167c0.593,2.894,0.601,6.092-2.754,7.845
	c-0.553,0.065-1.044-0.081-1.473-0.435c-1.75-11.268,0.251-22.09,4.204-32.584c1.28-3.399,0.232-4.665-2.87-5.741
	c-2.472-0.857-4.819-2.261-6.994-3.754c-6.379-4.378-7.419-10.28-3.116-16.821c2.302-3.498,5.026-6.679,8.454-9.068
	c2.152-1.501,2.059-2.709,0.904-4.824C47.837,158.982,46.229,155.664,45.923,151.932z"/>
<path fill-rule="evenodd" clip-rule="evenodd" fill="#56342A" d="M161.029,102.966c-2.447-8.365-2.536-16.95-1.996-25.519
	c0.172-2.734,2.892-4.003,5.353-4.596c9.391-2.259,18.753-2.054,28.004,0.835c3.606,1.127,5.445,3.521,5.257,7.433
	c-0.499,10.389-1.969,20.459-8.941,28.832c-1.179,0.9-1.799,0.253-2.27-0.816c-0.198-2.415,1.818-4.047,2.203-6.259
	c2.215-6.406,5.145-12.577,4.979-19.653c-0.071-3.045-0.809-5.133-3.726-6.204c-6.062-2.126-12.31-1.669-18.539-1.373
	c-8.784,1.554-9.519,2.507-8.344,11.342c0.454,3.418,0.798,6.827,0.513,10.28C162.908,99.264,164.406,102.188,161.029,102.966z"/>
<path fill-rule="evenodd" clip-rule="evenodd" fill="#643530" d="M161.029,102.966c1.674-1.813,0.615-4.079,1.015-6.104
	c3.909,1.413,2.664,5.229,3.644,7.59c0.129,0.654,0.094,0.533,0.03,0.014c-0.247-2.007-0.604-4.865,1.494-5.219
	c2.519-0.426,1.469,3.026,2.583,4.2c-0.138-0.432-0.396-1.058-0.523-1.707c-0.329-1.665-0.729-3.748,1.538-4.002
	c2.225-0.249,2.334,1.934,2.517,3.576c0.165,1.491,0.104,2.996-0.111,4.451c0.143,0.399,0.521,0.204,0.757,0.305
	c5.288,2.267,5.282,2.28,5.57-3.743c0.272-1.418,0.186-3.448,2.201-3.199c1.372,0.169,1.491,1.978,1.611,3.316
	c0.148,1.643-0.116,3.316,0.359,4.917c0.434,0.813,1.188,0.963,2.023,0.944c0.408,0.03,0.783,0.157,1.121,0.386
	c0.354,0.804,1.004,1.173,1.847,1.26c-1.665,2.631-4.453,3.863-7.047,5.074c-4.471,2.089-6.236,5.231-5.98,10.146
	c0.176,3.392,0.354,6.9-0.621,10.28c-0.045-4.12-0.24-8.248-0.086-12.364c0.113-2.975-0.809-4.788-3.93-5.092
	c-1.782-3.454-5.652-4.958-7.659-8.182C162.083,107.728,161.069,105.503,161.029,102.966z"/>
<path fill-rule="evenodd" clip-rule="evenodd" fill="#502C2D" d="M154.841,184.983c1.406-0.671,2.833-1.237,4.443-0.901
	c-2.916,0.494-2.237,2.722-2.178,4.601c0.333,10.583,0.723,21.164,1.024,31.749c0.104,3.661-0.23,7.279-2.17,10.543
	c-0.417,1-1.096,1.677-2.226,1.797c-0.818,0-1.523-0.243-2.021-0.939c-0.246-1.436,0.83-2.559,0.907-3.924
	c2.237-5.719,2.045-11.485,1.253-17.517c-0.988-7.527-0.395-15.184-0.241-22.784C153.654,186.594,154.033,185.671,154.841,184.983z"
	/>
<path fill-rule="evenodd" clip-rule="evenodd" fill="#6D615D" d="M153.771,232.108c0.729-0.378,1.46-0.756,2.19-1.135
	c4.51,2.978,8.739,4.951,12.539,8.902c1.388,1.443,3.66,2.86,5.765,3.045c6.61,0.58,10.277,3.038,10.911,5.017
	c0.188,0.945,0.375,1.89,0.563,2.835c-0.483,0.876-1.206,0.658-1.932,0.427c-2.892-2.828-6.117-4.898-10.331-5.23
	c-1.972-0.155-3.82-1.091-5.43-2.271c-4.37-3.202-8.204-7.139-13.177-9.521C154.123,233.819,153.717,233.021,153.771,232.108z"/>
<path fill-rule="evenodd" clip-rule="evenodd" fill="#6F5648" d="M48.989,234.956c0.365,0.024,0.73,0.049,1.096,0.073
	c3.223,2.444,6.966-0.837,10.25,0.93c-2.05,2.658-5.085,3.499-7.965,2.781c-3.586-0.896-5.714,0.28-8.255,2.633
	c-4.458,4.127-10.434,4.802-16.19,5.725c3.507-2.041,6.849-4.081,11.206-4.481C43.651,242.2,45.154,236.866,48.989,234.956z"/>
<path fill-rule="evenodd" clip-rule="evenodd" fill="#FDF6E6" d="M153.771,232.108c4.854,2.551,9.613,5.212,13.47,9.248
	c2.415,2.527,5.58,3.391,9.017,3.65c3.737,0.283,6.665,1.82,7.5,5.901c-7.76,3.509-16.155,3.314-24.363,3.936
	c-3.068,0.231-6.228,0.988-9.35,0.152c-8.001,0.985-16.03,1.219-24.08,0.92c-5.363-2.328-9.362-6.135-12.207-11.21
	c-0.647-1.155-1.27-2.365-2.21-3.293c-6.974-6.886-7.932-15.652-7.842-24.769c0.282-1.378,0.923-2.521,2.126-3.305
	c3.363-1.924,6.139,0.898,9.237,1.143c10.889,1.947,22.434,2.26,30.179,12.063c2.07,2.012,4.938,3.001,6.815,5.266
	C152.631,231.91,153.2,232.01,153.771,232.108z"/>
<path fill-rule="evenodd" clip-rule="evenodd" fill="#F7EAD3" d="M105.993,214.127c-0.77,15.106,6.489,28.501,16.581,38.2
	c1.186,1.138,2.264,2.39,3.391,3.589c-17.982,0.707-35.917-0.832-53.876-1.15c-3.859-4.846,1.117-7.262,3.291-9.735
	c2.771-3.156,6.675-5.349,10.199-7.8c2.898-2.017,5.332-4.451,7.451-7.238C95.152,225.341,104.712,213.553,105.993,214.127z"/>
<path fill-rule="evenodd" clip-rule="evenodd" fill="#9CA29B" d="M150.044,254.996c11.167-1.946,22.71-0.793,33.713-4.087
	c0.661-0.046,1.321-0.092,1.981-0.137c0,0,0.262,0.633-1.613,1.384c-3.339,1.337-7.392,1.59-10.894,2.115
	c-6.314,0.947-12.659,1.861-19.077,1.801C152.713,256.059,151.146,256.373,150.044,254.996z"/>
<path fill-rule="evenodd" clip-rule="evenodd" fill="#91CAD2" d="M79.026,89.951c-4.815,0.459-8.786,3.591-13.534,4.271
	c-1.783,0.255-3.558,0.57-5.337,0.858c-4.747,0.86-9.549,0.541-14.29,0.251c-4.764-0.291-10.689-7.879-11.409-13.583
	c-0.637-5.049,0.999-9.406,3.594-13.552c7.613-3.606,14.841-1.493,22.353,1.692c1.653-12.959,7.169-22.942,20.541-26.744
	c4.569,0.25,9.173-0.805,13.713,0.252c10.313,2.4,16.843,9.167,21.169,18.463c0.674,1.449,0.754,3.244,2.328,4.199
	c2.406,1.525,3.009-1.87,4.886-1.79c5.496-0.826,11.088-2.461,15.979,1.876c2.896,4.03,6.254,7.745,3.486,13.484
	c-2.04,4.229-5.563,5.539-9.528,6.272c-5.613,1.038-11.121,3.241-17.042,1.594c-1.91-0.532-3.483,0.121-4.066,2.5
	c-0.615,2.517-2.684,3.798-5.097,4.25c-6.021,1.129-11.998,2.53-18.096,3.197C82.562,98.113,81.697,97.39,79.026,89.951z"/>
<path fill-rule="evenodd" clip-rule="evenodd" fill="#94CCD4" d="M139.952,123.022c-19.043-2.667-37.791-0.468-56.441,3.396
	c-1.132,0.235-5.62,1.334-6.761,1.535c-2.658,0.237-1.552-1.272-2.676-4.017c-0.622-1.8,0.803-3.999-1.086-5.557
	c-1.241-1.74-2.327-3.674-4.873-3.689c-1.88,0.683-4.12,0.105-5.703,1.714c-1.332,2.591-1.904,6.217-6.405,4.197
	c-0.819-0.368-1.948,1.034-3.128,1.159c-0.508,0.058-1.003,0.033-1.504-0.055c-2.875-0.919-7.8,0.536-6.315-5.436
	c14.751-9.272,31.19-13.563,48.155-16.271c4.904-0.782,10.494-1.815,14.749-2.111s18.186-0.067,27.277,0.004
	c1.939,0.015,3.995-0.266,5.798,0.871c4.861,1.3,6.841,4.795,7.644,9.484c0.582,3.404,1.398,6.783,2.155,10.165
	c0.424,1.893,0.985,3.951-0.936,5.508C146.585,123.622,143.269,123.322,139.952,123.022z"/>
<path fill-rule="evenodd" clip-rule="evenodd" fill="#CAA686" d="M47.966,149.999c-2.64-2.762-1.673-4.565,1.191-6.625
	c13.027-9.372,28.127-13.148,43.433-16.252c29.41-5.622,52.161-1.342,53.239-1.063c1.519,0.393,3.867,0.108,4.298,1.516
	c0.669,2.184-2.518,1.939-3.282,3.49c-0.419,0.251-0.867,0.33-1.347,0.246c-3.148-1.761-6.437-2.515-9.988-1.347
	c-0.769,0.094-1.526,0.06-2.282-0.102c-14.337-1.013-28.3,1.7-42.286,4.187c-1.015,0.181-1.79,0.818-2.597,1.389
	c-1.842,1.104-3.969,0.979-5.975,1.386c-10.333,1.4-20.314,3.412-25.165,14.4C53.941,152.215,51.065,150.269,47.966,149.999z"/>
<path fill-rule="evenodd" clip-rule="evenodd" fill="#9DC5CE" d="M79.026,89.951c0.912-0.269,1.412-1.5,2.606-1.132
	c-0.897,6.78,1.613,8.632,8.736,7.664c4.777-0.65,9.358-1.764,13.937-3.109c3.227-0.948,7.215-0.791,6.544-6.172
	c-0.241-1.927,2.028-1.22,3.145-1.177c5.559,0.213,10.979,0.812,16.628-0.622c12.683-3.219,14.827-8.039,7.4-18.525
	c3.188-1.221,4.659,1.046,5.843,3.193c1.94,3.521,2.411,7.219,0.188,10.914c-0.794,1.32-2.113,2.106-3.037,3.279
	c-4.634,2.735-9.89,2.992-15.015,3.765c-2.889,2.359-6.111,1.18-9.253,0.888c-0.125-0.011-0.323,0.12-0.383,0.237
	c-0.06,0.117,0.013,0.301,0.058,0.489c1.346,3.437-4.098,5.461-4.098,5.461c-3.106,0.216-7.581,0.091-11.367,0.963
	c-15.349,2.125-30.36,5.627-44.926,10.963c-3.878,0.883-4.279-1.903-4.593-4.524c-0.398-3.318,2.022-3.078,4.183-3.031
	c0.515,0.011,0.942-0.204,1.376-0.422c6.255-1.255,12.449-2.722,18.124-5.77C76.638,92.469,78.633,92.118,79.026,89.951z"/>
<path fill-rule="evenodd" clip-rule="evenodd" fill="#81B4C0" d="M38.051,68.197c0.765,0.801,1.521,1.235,0.553,2.77
	c-5.293,8.386-2.394,19.139,6.228,23.326c3.101,1.504,6.559,0.489,9.851,0.675c1.821,0.103,3.649,0.079,5.474,0.112
	c-7.921,1.861-15.841,1.665-23.587-0.668c-5.402-1.628-8.582-6.208-8.763-11.508C27.561,75.712,30.607,71.339,38.051,68.197z"/>
<path fill-rule="evenodd" clip-rule="evenodd" fill="#F2E2D0" d="M154.841,184.983c0.196,8.629,0.304,17.261,0.618,25.885
	c0.234,6.429,0.651,12.84-1.502,19.067c-0.903,0.622-1.724,0.683-2.387-0.347c-0.462-1.097-0.568-2.261-0.464-3.419
	c1.368-15.229-0.836-30.437-0.423-45.608c0.31-11.391-0.507-22.858,1.133-34.218c0.266-0.59,0.668-1.07,1.197-1.442
	c2.002,2.206,1.159,4.954,1.28,7.453C154.823,163.223,153.528,174.124,154.841,184.983z"/>
<path fill-rule="evenodd" clip-rule="evenodd" fill="#A0C6CC" d="M112.325,95.103c1.786-1.656,4.819-3.132,2.652-6.1
	c3.665-0.703,7.292,0.121,10.934,0.302c2.093,0.104,4.177,0.514,6.234-0.213c1.586-0.102,3.172-0.204,4.757-0.306
	c1.956,2.023,1.759,4.083,0.105,6.168C128.992,94.996,120.341,95.061,112.325,95.103z"/>
<path fill-rule="evenodd" clip-rule="evenodd" fill="#E2E8EC" d="M118.154,66.06c-1.487,2.569-1.637-0.19-1.837-0.613
	c-2.061-4.351-4.146-8.619-7.486-12.235c-5.993-6.491-13.148-9.89-22.093-9.373c-1.919,0.111-4,0.651-5.793-0.694
	C97.709,38.205,114.373,48.468,118.154,66.06z"/>
<path fill-rule="evenodd" clip-rule="evenodd" fill="#E2E3E5" d="M141.016,84.262c4.857-8.289,3.928-13.681-2.993-17.384
	c-3.406-2.347-7.123-3.241-11.196-2.316c-1.311,0.297-2.585,0.613-3.785-0.291c9.178-4.489,19.953-1.084,23.046,7.281
	C148.139,77.099,146.464,81.297,141.016,84.262z"/>
<path fill-rule="evenodd" clip-rule="evenodd" fill="#769EAB" d="M56.999,99.052c-0.723,1.931-4.479-0.57-4.166,2.82
	c0.205,2.222-0.164,4.867,3.199,5.157c-11.156,5.149-9.296,7.411-10.801-6.441c-0.053-0.484,0.025-0.983,0.043-1.475
	C49.182,99.093,53.091,99.073,56.999,99.052z"/>
<path fill-rule="evenodd" clip-rule="evenodd" fill="#E8E8EA" d="M149.902,123.921c-0.063-6.89-2.208-13.378-3.807-19.978
	c-0.786-3.249-3.465-3.624-6.027-4.265c-0.008-0.002,0.003-0.37,0.099-0.439c0.266-0.194,0.581-0.32,0.874-0.474
	c4.818-0.122,7.554,2.028,8.377,6.959c0.928,5.56,2.677,10.981,3.443,16.57C153.128,124.237,151.803,125.037,149.902,123.921z"/>
<path fill-rule="evenodd" clip-rule="evenodd" fill="#F3E4CC" d="M153.014,144.902c-0.012,0.345-0.024,0.689-0.037,1.035
	c-1.404,0.516-2.168-0.482-2.814-1.366c-2.217-3.03-3.999-6.345-5.91-9.565c-1.044-1.76-1.458-3.833,1.734-4.067
	c0.283,0.059,0.569,0.101,0.858,0.125C150.203,135.096,153.82,139.013,153.014,144.902z"/>
<path fill-rule="evenodd" clip-rule="evenodd" fill="#475058" d="M132.146,89.091c-5.732,1.926-16.146,0.846-19.309-1.154
	c0.023-0.248,0.047-0.494,0.071-0.741c4.364,0.277,8.728,0.554,13.093,0.831C127.798,89.83,130.149,88.43,132.146,89.091z"/>
<path fill-rule="evenodd" clip-rule="evenodd" fill="#E3E6E8" d="M137.008,94.954c-0.035-2.056-0.071-4.112-0.105-6.168
	c4.098-0.298,3.289,3.298,3.442,5.192C140.536,96.35,138.239,94.826,137.008,94.954z"/>
<path fill-rule="evenodd" clip-rule="evenodd" fill="#CDAE8D" d="M60.335,235.959c-3.155,0.479-6.093,2.68-9.542,0.932
	c-1.081-0.548-1.016-1.034-0.708-1.862c2.955-2.731,1.856-6.124,1.353-9.303c-1.416-8.927,3.064-16.39,5.816-24.281
	c0.461-1.322,1.552-1.424,2.866-1.166c1.938,0.38,3.924,0.522,5.888,0.766c1.421,1.756,0.412,3.467-0.161,5.138
	c-0.643,1.875-1.561,3.646-2.33,5.475c-2.797,6.647-3.65,13.054,2.083,18.744c0.21,1.016-0.308,5.005-4.48,5.706
	C60.848,236.109,60.586,236.061,60.335,235.959z"/>
<path fill-rule="evenodd" clip-rule="evenodd" fill="#EAD4BC" d="M61.12,236.106c0.159-1.729,1.825-1.805,2.843-2.593
	c4.329-4.383,10.605-4.896,15.689-7.82c1.813-1.043,4.363-1.275,5.65-2.899c4.201-5.299,10.757-6.121,16.2-9.025
	c1.455-0.776,3.12-1.301,4.49,0.358c-0.349,0.938-6.118,7.998-12.965,15.865c-1.023-1.278-1.277-0.93-3.086-0.041
	c-8.378,3.563-17.127,6.89-26.598,6.811C62.479,236.755,61.718,236.823,61.12,236.106z"/>
<path fill-rule="evenodd" clip-rule="evenodd" fill="#D1B493" d="M47.966,149.999c3.309-2.755,6.007,0.24,8.948,0.952
	c3.437,3.466,6.185,7.617,10.609,10.108c1.598,0.899,1.73,2.854,1.048,4.473c-3.031,7.198-5.295,14.505-3.97,22.469
	c0.043,0.259-0.317,0.545-0.567,0.772c-0.33,0.027-0.756-0.068-0.976,0.102c-2.237,1.732-4.031,4.81-7.566,2.711
	s-1.774-5.56-1.255-8.072c1.083-5.246-0.572-10.634,1.254-15.767c0.186-0.519,0.021-1.442-0.348-1.836
	c-3.725-3.988-4.467-9.48-7.151-13.981C48.25,151.344,48.375,150.656,47.966,149.999z"/>
<path fill-rule="evenodd" clip-rule="evenodd" fill="#94CCD4" d="M61.129,115.353c1.6-2.573,4.867-0.5,6.706-2.407
	c1.184,0.812,1.096,2.075,0.843,3.167c-0.751,3.231,1.079,3.786,3.62,3.732c1.2,0.72,1.573,2.169,2.642,3.008
	c0.462,2.941,3.354,2.883,5.152,4.174c-8.977,3.219-18.175,5.853-26.75,10.134c-4.7-0.008-5.457-0.906-5.67-6.703
	c0.493-1.918,1.173-3.688,3.478-4.046c2.684,1.49,5.332,4.395,8.188,0.245c0.501-1.03,0.768-2.252,1.903-2.799
	c4.465-2.152,4.71-3.414,1.273-7.107C62.07,116.273,61.537,115.873,61.129,115.353z"/>
<path fill-rule="evenodd" clip-rule="evenodd" fill="#7CADBA" d="M49.037,130.135c-0.333,3.425,0.168,6.34,4.305,7.026
	c-2.995,2.038-5.988,4.076-9.23,6.282c-2.76-6.732-4.491-13.678-5.573-20.656c-0.594-3.833,3.808-4.822,6.521-6.517
	c0.189,4.913,4.629,2.973,7.012,4.349c0.027,0.448-0.116,0.831-0.429,1.155c-0.665,0.595-1.454,0.962-2.277,1.273
	C44.838,125.433,44.838,125.433,49.037,130.135z"/>
<path fill-rule="evenodd" clip-rule="evenodd" fill="#F2D8AE" d="M64.034,188.773c-3.112-7.958-0.568-15.256,2.805-22.363
	c1.246-2.624,1.136-4.169-1.733-5.461c-4.308-1.939-7.214-5.23-8.191-9.998c-0.245-4.359,1.915-7.333,5.614-9.207
	c6.104-3.094,12.057-6.795,19.389-5.886c1.1,0.822,3.851,0.325,6.15-1.111c-1.19-2.405,1.222-2.077,2.038-2.229
	c13.668-2.545,22.894-5.967,36.894-5.442c2.784,0.259,5.583,2.841,8.883,2.037c3.869-2.166,7.242-1.579,10.104,1.826
	c-1.567,0.699-1.97,1.973-0.874,3.149c3.288,3.529,4.376,8.483,7.864,11.849c-0.469,11.231-0.604,22.531-0.508,33.704
	c0.089,10.47-0.547,21.131,1.219,31.646c1.044,6.218-0.476,12.443-1.703,18.582c-3.074,1.603-4.458-1.516-6.648-2.381
	c-2.184-1.554-3.858-3.648-5.799-5.461c-2.761-2.578-5.854-4.245-9.802-4.085c-5.008,0.203-9.328-3.688-14.523-2.547
	c-11.05-5.253-19.26,0.868-27.871,6.539c-6.768,4.455-13.767,8.88-22.349,9.144c-6.645-4.709-6.245-10.914-3.726-17.564
	c1.575-4.159,3.161-8.313,4.742-12.47C70.811,196.469,70.482,194.432,64.034,188.773z"/>
<path fill-rule="evenodd" clip-rule="evenodd" fill="#E4E5E4" d="M50.814,190.067c-2.929-1.58-6.067-2.713-6.257-5.69
	c-0.315-4.941,3.615-7.681,7.249-11.16C52.517,179.191,50.679,184.254,50.814,190.067z"/>
<path fill-rule="evenodd" clip-rule="evenodd" fill="#A3633D" d="M182.912,109.901c-1.99-13.198-2.258-9.953-2.286-9.484
	c-0.026,0.449,0.391,2.837,0.364,3.287c-0.684,0.337-1.276-0.683-1.801-1.087c-2.612-2.013-4.354-1.909-5.059,1.791
	c-0.188,0.99-0.094,2.799-2.108,2.503c0-2.382,0.352-4.789,0-7.145c-0.21-1.406-1.944-1.563-1.895-0.052
	c0.105,3.193,1.122,10.664-0.313,10.524c-1.518,0.14-0.148-6.965-2.223-9.877c-0.118-0.167-0.467-0.392-0.443,0.108
	c0.145,3.073-0.281,5.869,0.884,9.391c-4.619-3.889-3.793-9.109-5.989-12.997c-0.313-3.939-0.699-7.873-0.926-11.816
	c-0.517-8.99,0.709-10.281,10.052-10.873c6.318,0.629,12.79-0.141,18.934,2.08c3.506,1.528,4.093,4.44,3.86,7.852
	c-0.412,6.043-2.333,11.701-4.232,17.369c-1.062,2.901-1.95,5.913-4.749,7.746c-3.297-1.242-0.258-3.702-1.035-5.086
	C183.359,105.79,183.904,107.975,182.912,109.901z"/>
<path fill-rule="evenodd" clip-rule="evenodd" fill="#E7CBAB" d="M188.861,101.854c1.208-5.646,3.453-11.07,3.694-16.919
	c0.121-2.942,0.721-6.09-2.492-8.021c-0.283-0.935-0.072-1.394,0.991-1.025c3.231,1.113,4.176,3.327,4.181,6.74
	c0.012,7.606-2.697,14.41-5.359,21.277C187.978,103.993,188.488,102.89,188.861,101.854z"/>
<path fill-rule="evenodd" clip-rule="evenodd" fill="#BE9074" d="M191.055,75.89c-0.33,0.341-0.661,0.683-0.991,1.025
	c-6.165-1.838-12.65-1.456-18.895-2.74C177.861,74.008,184.615,73.129,191.055,75.89z"/>
<path fill-rule="evenodd" clip-rule="evenodd" fill="#D7AD8D" d="M188.861,101.854c0.338,0.685,0.676,1.37,1.015,2.054
	c-0.191,2.108-1.87,3.279-3.018,4.785c-0.305,0.061-0.601,0.148-0.89,0.261c-0.347,0.453-0.588,0.426-0.708-0.155
	C186.461,106.484,187.661,104.168,188.861,101.854z"/>
<path fill-rule="evenodd" clip-rule="evenodd" fill="#8B5139" d="M172.022,106.91c0.305-0.741,0.672-1.462,0.902-2.226
	c0.524-1.741-1.163-4.547,1.376-5.141c2.708-0.633,5.593,0.064,6.662,3.434c-0.002,1.64,0.076,3.285-0.022,4.919
	c-0.164,2.712-2.611,2.168-4.14,2.493c-2.805,0.597-1.157-2.448-2.337-3.304c-1.07,0.812,0.403,3.38-1.55,3.277
	C170.922,110.656,172.15,108.1,172.022,106.91z"/>
<path fill-rule="evenodd" clip-rule="evenodd" fill="#8B5139" d="M185.261,108.798c0.255-0.036,0.491,0.016,0.708,0.155
	c-0.769,1.121-1.911,1.039-3.055,0.948c-0.002-3.726-0.002-7.451-0.002-11.176c2.662,2.038,2.111,4.4,1.735,6.678
	C184.44,106.662,183.454,107.945,185.261,108.798z"/>
<path fill-rule="evenodd" clip-rule="evenodd" fill="#826B5D" d="M145.911,227.086c2.019,0.941,3.593,2.854,6.073,2.783
	c0.657,0.021,1.315,0.045,1.973,0.066c-0.632,0.625-1.264,1.25-1.896,1.876c-2.88-0.326-5.222-1.642-7.076-3.852
	C145.151,227.518,145.46,227.227,145.911,227.086z"/>
<path fill-rule="evenodd" clip-rule="evenodd" fill="#6F5648" d="M64.992,231.078c6.71-0.845,12.053-5.256,18.397-7.066
	c0.625-0.178,1.481-0.403,1.744-0.877c3.645-6.566,11.184-6.61,16.748-9.93c4.428-2.644,9.009-0.985,13.131,1.664
	c0.36,0.224,0.477,0.439,0.349,0.649c-0.125,0.206-0.25,0.31-0.376,0.31c-3.271,0.887-5.612-3.148-8.991-1.701
	c-6.165,2.73-12.985,3.438-18.332,8.721c-4.862,4.804-12.117,6.39-18.537,8.917c-1.688,0.665-3.44,1.17-5.162,1.749
	C64.305,232.702,64.648,231.891,64.992,231.078z"/>
<path fill-rule="evenodd" clip-rule="evenodd" fill="#62493E" d="M114.984,215.828c0.014-0.319,0.022-0.64,0.027-0.96
	c11.659,0.638,23.147,1.701,30.899,12.218c-0.309,0.291-0.617,0.583-0.927,0.874C137.334,218.104,125.716,218.063,114.984,215.828z"
	/>
<path fill-rule="evenodd" clip-rule="evenodd" fill="#766960" d="M135.816,231.825c-0.358,1.086-0.922,1.957-2.069,1.78
	c-0.829-0.128-1.451-0.842-1.303-1.784c0.171-1.092,0.979-1.825,2.023-1.713C135.243,230.192,135.793,230.973,135.816,231.825z"/>
<path fill-rule="evenodd" clip-rule="evenodd" fill="#98887B" d="M144.797,245.001c-0.15,0.954-0.727,1.604-1.535,1.726
	c-1.301,0.195-1.592-0.967-1.78-1.867c-0.202-0.963,0.595-1.54,1.409-1.584C143.989,243.217,144.634,243.948,144.797,245.001z"/>
<path fill-rule="evenodd" clip-rule="evenodd" fill="#94CCD4" d="M61.129,115.353c2.394-1.041,4.302,0.307,4.602,2.199
	c0.386,2.44,2.467,4.744,1.077,7.368c-0.61,1.151-2.077,1.584-2.996,0.942c-3.228-2.256-2.595,0.515-2.938,2.078
	c-1.954,0.218-3.048-2.169-5.095-1.677c-1.454-1.475-2.141-3.347-2.714-5.276c3.043-2.87,3.043-2.87,6.734-0.442
	C59.801,118.582,59.152,116.512,61.129,115.353z"/>
<path fill-rule="evenodd" clip-rule="evenodd" fill="#94CCD4" d="M72.068,120.912c-2.722-1.706-2.001,2.293-3.654,2.456
	c-2.042-3.523-1.523-6.962-0.58-10.421c3.832-0.604,4.473,2.877,6.262,4.89C74.398,119.505,74.371,120.958,72.068,120.912z"/>
<path fill-rule="evenodd" clip-rule="evenodd" fill="#94CCD4" d="M53.065,120.987c1.04,2.58,2.718-0.666,4.126,0.297
	c-0.248,1.643-3.847,2.597-0.902,4.577c1.632,1.32,1.784,2.789-0.01,3.939c-1.539,0.987-2.445-0.394-3-1.517
	c-1.113-2.252-2.982-4.428-1.397-7.226c0,0,0.189-0.433,0.189-0.435C52.402,120.743,52.733,120.865,53.065,120.987z"/>
<path fill-rule="evenodd" clip-rule="evenodd" fill="#94CCD4" d="M72.068,120.912c0.676-1.025,1.353-2.05,2.028-3.076
	c3.116,1.197,1.363,3.21,0.843,5.018C73.333,123.165,72.617,122.162,72.068,120.912z"/>
<path fill-rule="evenodd" clip-rule="evenodd" fill="#6A5341" d="M88.068,134.747c0.676,0.429,1.889,0.818,1.925,1.295
	c0.099,1.323-1.116,0.798-1.771,0.696c-3.766-0.581-6.335,1.365-8.885,4.35c-0.391-2.703,1.292-3.871,2.582-5.23
	C83.848,134.825,85.934,134.655,88.068,134.747z"/>
<path fill-rule="evenodd" clip-rule="evenodd" fill="#6A5444" d="M135.883,129.113c2.273,1.106,5.431,0.502,6.982,3.853
	c-3.894-0.716-7.505-1.562-11.445-0.697c0.256-2.14,1.853-2.255,2.696-3.09C134.705,129.157,135.294,129.134,135.883,129.113z"/>
<path fill-rule="evenodd" clip-rule="evenodd" fill="#94CCD4" d="M49.037,130.135c-2.703-0.267-5.305-0.845-4.961-4.355
	c0.324-3.32,2.817-3.985,5.663-3.904c3.244,0.787,2.208,3.254,2.102,5.356C49.673,127.01,49.899,129.098,49.037,130.135z"/>
<path fill-rule="evenodd" clip-rule="evenodd" fill="#94CCD4" d="M51.84,127.233c-0.875-1.716-0.438-3.949-2.102-5.356
	c0.409-1.075,1.243-1.037,2.146-0.819c0.619,2.007,1.176,4.037,1.884,6.013c0.354,0.989,0.679,2.582,2.114,2.089
	c1.864-0.64,0.614-2.137,0.407-3.297c3.777-4.269,3.052,1.395,4.584,2.079C54.292,132.103,54.292,132.103,51.84,127.233z"/>
<path fill-rule="evenodd" clip-rule="evenodd" fill="#522A2C" d="M134.799,159.895c9.025-2.065,9.08-2.06,8.264,6.871
	c-0.256,2.806-0.682,5.634-1.396,8.356c-3.862,14.729-12.737,22.713-25.65,23.25c-14.301,0.595-26.312-7.425-31.074-21.184
	c-1.328-3.838-4.561-10.371-1.442-12.178s2.537-0.368,3.941,0.506c5.999,2.15,12.267,1.254,18.255,0.732
	c8.05-0.701,16.162-1.29,24.163-2.674c1.682-0.291,3.232-0.678,4.627-1.624C135.261,161.371,136.52,160.869,134.799,159.895z"/>
<path fill-rule="evenodd" clip-rule="evenodd" fill="#453029" d="M87.329,166.173c-1.447-0.346-2.854,0.293-4.053-1.016
	c3.212-3.123,7.943-1.612,14.25-2.009c10.208-0.641,19.602-2.825,29.891-2.523c2.178,0.063,5.016-1.271,7.382-0.73
	c1.455,0.069,1.855,0.742,1.166,2.039c-5.933,3.311-12.653,2.354-18.988,3.256c-8.192,1.166-16.527,1.474-24.824,1.754
	C90.524,166.998,88.796,167.294,87.329,166.173z"/>
<path fill-rule="evenodd" clip-rule="evenodd" fill="#4C3126" d="M134.907,141.16c4.479-0.021,10.468,6.385,10.045,10.711
	c-0.088,0.899-0.337,1.752-1.286,1.781c-0.482,0.015-1.161-0.581-1.447-1.077c-0.654-1.136-1.009-2.449-1.688-3.567
	c-1.409-2.318-3.134-4.515-6.188-4.195c-3.36,0.353-4.259,3.217-5.254,5.892c-0.471,1.266,0.707,4.071-2.195,3.259
	c-2.541-0.71-1.363-3.023-0.945-4.646C127.095,144.871,131.266,141.178,134.907,141.16z"/>
<path fill-rule="evenodd" clip-rule="evenodd" fill="#472921" d="M78.991,156.483c0.007-5.578,3.844-10.006,8.892-10.26
	c4.143-0.208,8.833,3.893,9.315,8.206c0.121,1.086,0.62,2.56-1.012,2.875c-1.443,0.279-1.119-1.33-1.616-2.068
	c-0.463-0.688-0.796-1.463-1.262-2.148c-1.576-2.316-3.459-4.229-6.581-3.347c-3.482,0.983-4.011,4.058-4.669,7.023
	c-0.248,1.118,0.836,3.122-1.218,3.145C78.758,159.932,79.046,157.952,78.991,156.483z"/>
<path fill-rule="evenodd" clip-rule="evenodd" fill="#EB6056" d="M114.122,196.031c-1.156-0.068-2.337-0.006-3.463-0.228
	c-3.571-0.705-7.289-1.385-9.791-4.245c-0.979-1.117,5.641-10.794,7.853-11.877c7.239-3.546,16.478,0.213,19.341,7.751
	c1.102,2.9,0.313,4.759-2.425,6.009C121.976,195.114,118.212,196.268,114.122,196.031z"/>
<path fill-rule="evenodd" clip-rule="evenodd" fill="#F1EAE8" d="M87.329,166.173c16.211-1.413,32.424-2.826,48.636-4.239
	c1.229,1.23-0.824,2.233-2.835,2.345c-15.674,3.086-29.429,4.15-45.407,3.742C85.85,167.973,86.691,166.96,87.329,166.173z"/>
</svg>
